<mxfile host="65bd71144e">
    <diagram id="E-zpiBqpWLHH-f4_goDn" name="Page-1">
        <mxGraphModel dx="1548" dy="714" grid="1" gridSize="10" guides="1" tooltips="1" connect="1" arrows="1" fold="1" page="1" pageScale="1" pageWidth="850" pageHeight="1100" math="0" shadow="0">
            <root>
                <mxCell id="0"/>
                <mxCell id="1" parent="0"/>
                <mxCell id="2" value="Bookings" style="swimlane;startSize=60;horizontal=1;" vertex="1" parent="1">
                    <mxGeometry x="50" y="60" width="670" height="450" as="geometry"/>
                </mxCell>
                <mxCell id="3" value="" style="whiteSpace=wrap;html=1;aspect=fixed;" vertex="1" parent="2">
                    <mxGeometry x="50" y="90" width="200" height="200" as="geometry"/>
                </mxCell>
                <mxCell id="4" value="Image" style="whiteSpace=wrap;html=1;aspect=fixed;" vertex="1" parent="2">
                    <mxGeometry x="105" y="110" width="90" height="90" as="geometry"/>
                </mxCell>
                <mxCell id="6" value="Description" style="rounded=0;whiteSpace=wrap;html=1;" vertex="1" parent="2">
                    <mxGeometry x="90" y="215" width="130" height="20" as="geometry"/>
                </mxCell>
                <mxCell id="7" value="Add- Wishlist" style="rounded=0;whiteSpace=wrap;html=1;" vertex="1" parent="2">
                    <mxGeometry x="70" y="250" width="80" height="20" as="geometry"/>
                </mxCell>
                <mxCell id="8" value="Availability" style="rounded=0;whiteSpace=wrap;html=1;" vertex="1" parent="2">
                    <mxGeometry x="160" y="250" width="80" height="20" as="geometry"/>
                </mxCell>
                <mxCell id="10" value="Book Now" style="rounded=0;whiteSpace=wrap;html=1;" vertex="1" parent="2">
                    <mxGeometry x="90" y="300" width="120" height="20" as="geometry"/>
                </mxCell>
                <mxCell id="11" value="" style="whiteSpace=wrap;html=1;aspect=fixed;" vertex="1" parent="2">
                    <mxGeometry x="410" y="90" width="200" height="200" as="geometry"/>
                </mxCell>
                <mxCell id="12" value="Image" style="whiteSpace=wrap;html=1;aspect=fixed;" vertex="1" parent="2">
                    <mxGeometry x="465" y="110" width="90" height="90" as="geometry"/>
                </mxCell>
                <mxCell id="13" value="Description" style="rounded=0;whiteSpace=wrap;html=1;" vertex="1" parent="2">
                    <mxGeometry x="450" y="215" width="130" height="20" as="geometry"/>
                </mxCell>
                <mxCell id="14" value="Add- Wishlist" style="rounded=0;whiteSpace=wrap;html=1;" vertex="1" parent="2">
                    <mxGeometry x="430" y="250" width="80" height="20" as="geometry"/>
                </mxCell>
                <mxCell id="15" value="Availability" style="rounded=0;whiteSpace=wrap;html=1;" vertex="1" parent="2">
                    <mxGeometry x="520" y="250" width="80" height="20" as="geometry"/>
                </mxCell>
                <mxCell id="16" value="Book Now" style="rounded=0;whiteSpace=wrap;html=1;" vertex="1" parent="2">
                    <mxGeometry x="450" y="300" width="120" height="20" as="geometry"/>
                </mxCell>
            </root>
        </mxGraphModel>
    </diagram>
</mxfile>
